<?xml version="1.0" encoding="UTF-8" standalone="no"?>
<!-- Created with Inkscape (http://www.inkscape.org/) -->

<svg
   version="1.1"
   id="svg1"
   width="1024"
   height="1024"
   viewBox="0 0 1024 1024"
   xmlns="http://www.w3.org/2000/svg"
   xmlns:svg="http://www.w3.org/2000/svg">
  <defs
     id="defs1" />
  <g
     id="g1">
    <path
       style="fill:#ffffff;fill-opacity:1;stroke:#000000;stroke-width:1.9;stroke-dasharray:none;stroke-opacity:1"
       d="m 508.24988,874.06605 c -2.22761,-1.61367 -4.37305,-3.45632 -4.76763,-4.09477 -0.39459,-0.63845 -0.64085,-106.62135 -0.54726,-235.51755 l 0.17016,-234.35672 -5.68548,-6.29851 c -9.24163,-10.23809 -99.48162,-99.80096 -104.75676,-103.97072 -6.03661,-4.77167 -8.67765,-4.84321 -17.43787,-0.4724 -3.69877,1.84546 -7.97483,3.65712 -9.50235,4.02591 -2.0471,0.49423 -43.34876,3.53811 -48.97269,3.60923 -0.4125,0.005 -0.74834,0.57198 -0.7463,1.25948 0.002,0.6875 2.8215,2.70689 6.26549,4.48754 C 332.08345,307.8118 358,331.82475 358,335.84387 c 0,0.7635 -1.50378,3.47347 -3.34174,6.02215 -1.83796,2.54869 -3.6382,5.4589 -4.00053,6.46714 -0.36233,1.00823 -1.06478,1.68323 -1.561,1.5 -0.49622,-0.18324 -8.25848,-7.48546 -17.24947,-16.22716 -8.99099,-8.7417 -18.06049,-17.27519 -20.15444,-18.96331 -2.09395,-1.68813 -5.38278,-5.66305 -7.30852,-8.83316 -1.92574,-3.17011 -3.92432,-6.02525 -4.44129,-6.34475 -0.51696,-0.3195 -3.33623,1.6854 -6.26502,4.45533 -9.15495,8.65837 -18.94984,11.59632 -28.95969,8.68638 -8.2224,-2.39032 -13.57732,-6.93943 -17.7183,-15.05206 -3.0818,-6.03758 -3.48776,-7.70509 -3.39753,-13.95566 0.12653,-8.76508 2.50915,-14.48811 8.47298,-20.35197 8.68893,-8.54329 21.76868,-10.66359 32.54936,-5.27642 7.17805,3.58691 10.51533,6.91357 14.14177,14.09676 l 2.74279,5.43286 32.99531,0.61276 c 18.14743,0.33702 35.80782,0.96362 39.24532,1.39246 5.17294,0.64533 6.25,0.52767 6.25,-0.68272 C 380,276.91033 341.66064,239 339.72683,239 c -0.81542,0 -3.09808,0.675 -5.07259,1.5 -10.12286,4.2296 -22.82943,-1.72361 -29.3769,-13.7635 -1.28914,-2.37055 -1.76237,-5.53172 -1.7687,-11.81492 -0.008,-7.81107 0.26208,-9.0163 3.0178,-13.47356 4.4581,-7.21081 10.83965,-10.82974 19.87617,-11.27163 6.26135,-0.30619 7.74311,-0.008 12.57911,2.53101 3.16131,1.65979 6.85366,4.67681 8.72278,7.12739 5.15721,6.76155 5.85994,11.03733 4.06824,24.75312 -0.20534,1.57194 3.68114,5.7406 15.72726,16.86912 8.8,8.12967 21.85,20.49565 29,27.47995 C 412.45896,284.52611 421.81112,293 423.057,293 c 1.02628,0 1.35493,-53.69033 0.35913,-58.66933 -0.46055,-2.30279 -1.63042,-3.39944 -5.53944,-5.19274 -11.85503,-5.4386 -17.84952,-23.39052 -12.1258,-36.3136 8.69386,-19.62909 32.3967,-24.06476 46.72713,-8.74437 6.81916,7.29023 9.14307,14.72311 7.32233,23.42004 -1.92395,9.18996 -8.58104,18.92388 -14.66589,21.44431 l -2.84395,1.178 -0.52267,40.68884 -0.52267,40.68885 26.07364,26.5 c 26.32104,26.75145 34.11346,33.90791 35.44968,32.55656 0.40233,-0.40689 0.73151,-12.47172 0.73151,-26.81072 v -26.07092 l 9,-0.0875 9,-0.0875 0.64147,6 c 0.3528,3.3 0.6903,15.5625 0.75,27.25 0.0597,11.6875 0.44603,21.24311 0.85853,21.23469 1.66759,-0.034 4.82039,-3.00711 32.53124,-30.67663 L 585.13233,312.5 l -0.25585,-40 c -0.14071,-22 -0.4357,-40.54182 -0.65552,-41.20405 -0.21982,-0.66223 -2.39346,-2.16923 -4.83031,-3.34889 C 571.96219,224.35101 566,213.47599 566,203.52257 c 0,-24.8827 31.20826,-38.2624 48.30805,-20.71077 13.32422,13.6763 9.53775,37.77652 -7.30805,46.51446 l -4.5,2.33416 -0.2647,30.19553 c -0.2311,26.3626 -0.0702,30.27017 1.26757,30.78353 1.02795,0.39446 5.07314,-2.82312 12.29022,-9.77575 5.91687,-5.70005 21.54646,-20.69637 34.73243,-33.32514 18.28562,-17.51294 23.89243,-23.44515 23.6287,-25 -0.19018,-1.12123 -0.54097,-5.41359 -0.77953,-9.53859 -0.39966,-6.91044 -0.19985,-7.90247 2.54175,-12.61997 5.59842,-9.63327 17.78321,-14.88446 28.81114,-12.41651 13.77566,3.08285 22.74853,18.00714 18.86274,31.37377 -4.16147,14.31498 -22.19492,24.20105 -33.38508,18.30195 l -3.29477,-1.7369 -19.45523,18.70438 C 656.75486,266.89412 648,275.91389 648,276.65066 c 0,1.09641 6.96519,1.33682 38.37177,1.32447 l 38.37178,-0.0151 1.65344,-4.32948 c 5.32277,-13.93747 23.00376,-21.97965 37.63714,-17.11922 6.14923,2.04244 13.13015,8.01679 16.29298,13.94371 1.75188,3.28288 2.15855,5.74055 2.15855,13.04495 0,10.95822 -1.69832,14.75184 -10.00118,22.34019 -11.89583,10.87211 -25.27339,10.42997 -38.2137,-1.26299 -6.31598,-5.70718 -7.55016,-5.53788 -13.08661,1.79509 -2.19891,2.91243 -9.65105,10.61204 -16.56032,17.11024 -6.90927,6.49819 -15.54382,15.34798 -19.18789,19.66618 -3.64406,4.31821 -7.17201,7.85129 -7.83988,7.85129 -1.54621,0 -9.59529,-11.59188 -9.59848,-13.82325 -0.001,-0.92221 8.77369,-10.28559 19.5,-20.8075 C 698.22392,305.84733 707,297.01574 707,296.74349 c 0,-0.27225 -9.3375,-0.72622 -20.75,-1.00881 -24.11671,-0.59717 -30.47892,-1.62928 -38.91248,-6.31256 C 643.94815,287.53995 640.74301,286 640.21497,286 c -1.16301,0 -10.20373,7.17123 -20.17107,16 -4.03604,3.575 -27.52482,27.137 -52.19729,52.35999 l -44.85904,45.85999 0.0125,233.14001 c 0.007,128.22701 0.01,233.9069 0.006,234.8442 -0.006,1.53109 -8.26493,8.79581 -10.00001,8.79581 -0.38839,0 -2.52875,-1.32028 -4.75636,-2.93395 z M 541,648.69194 V 450.38388 l 18.25,-17.98314 C 594.24985,397.91267 606.72403,386 607.83785,386 c 0.61683,0 2.09214,1.9125 3.27848,4.25 1.18634,2.3375 3.26989,5.58074 4.63011,7.20719 l 2.47312,2.9572 -2.85978,2.42471 C 606.59446,410.27092 576,440.84693 576,442.17514 c 0,1.70348 10.00057,2.63066 32.36093,3.00028 9.56239,0.15807 10.98232,-0.0374 11.87633,-1.6349 2.41117,-4.30851 8.63551,-10.02832 13.26274,-12.18767 9.36902,-4.37217 20.5821,-2.11691 28.41381,5.71481 4.53917,4.53916 6.08619,8.65149 6.08619,16.17843 0,5.98062 -1.45091,10.07363 -7.74542,21.84986 -0.1752,0.32777 1.60835,1.82063 3.96344,3.31747 2.35509,1.49684 7.92899,6.59975 12.38645,11.3398 l 8.10448,8.61827 5.08091,-2.18574 c 7.14194,-3.07238 12.59879,-2.83132 20.03602,0.8851 7.42778,3.71171 11.71188,8.6148 13.81917,15.81585 3.71191,12.68437 -2.31723,25.4609 -14.64505,31.03476 -8.75176,3.95699 -17.82229,2.38307 -24.79643,-4.30269 -6.77865,-6.49836 -9.45593,-12.98504 -9.41305,-22.8065 l 0.0357,-8.16639 -5.73544,-6.07294 c -5.50034,-5.82401 -14.02449,-17.35196 -15.31248,-20.70841 -0.49299,-1.2847 -2.16445,-1.59464 -8.44644,-1.56626 -11.69223,0.0528 -16.94303,-3.2018 -23.06796,-14.29827 l -1.9319,-3.5 -28.91598,-0.52956 c -15.90379,-0.29126 -29.3113,-0.21094 -29.79447,0.17849 -1.36384,1.09923 -0.26429,75.60829 1.13644,77.00902 0.86161,0.86161 2.66433,-0.2593 7.26042,-4.51447 3.36281,-3.11337 7.54687,-6.38805 9.29792,-7.27706 5.82466,-2.95721 5.81795,-2.92335 2.11379,-10.65262 -4.20188,-8.76785 -4.55159,-14.75383 -1.15628,-19.79212 8.1051,-12.02716 26.75899,-11.7396 33.08152,0.50997 6.17921,11.9719 -3.51564,29.01255 -17.25715,30.33294 -4.01647,0.38593 -5.17874,0.91391 -5.71225,2.59485 -0.36839,1.16069 -5.92378,7.51714 -12.3453,14.12545 C 560.09365,562.95388 562,557.35734 562,591.57584 c 0,20.00896 0.34458,29.51909 1.08619,29.97743 0.61485,0.38 10.05291,-8.20174 21.75,-19.7766 11.36509,-11.24634 23.25131,-22.33606 26.41381,-24.64383 l 5.75,-4.19593 v -8.50057 c 0,-4.96989 0.57382,-9.87392 1.38154,-11.80706 2.82655,-6.7649 14.44154,-14.63909 21.5648,-14.61951 8.29107,0.0228 21.23148,9.93895 24.02801,18.4125 3.1841,9.64791 -2.20845,21.80409 -12.21917,27.54516 -5.80127,3.32698 -10.73665,3.83223 -18.12674,1.85568 l -4.40025,-1.17689 -6.3641,5.0641 c -3.50025,2.78526 -18.48289,17.35109 -33.29476,32.36852 l -26.93067,27.30441 -0.37634,89.05837 -0.37634,89.05838 -9.67423,9.75 C 546.89093,842.6125 542.19158,847 541.76876,847 541.34594,847 541,757.76137 541,648.69194 Z m -63.50113,190.53649 c -2.75062,-2.60064 -6.95902,-6.3067 -9.35198,-8.23571 l -4.35086,-3.50727 0.14982,-89.21908 c 0.0926,-55.14436 -0.21535,-89.90142 -0.80633,-91.00568 -1.24066,-2.3182 -53.82724,-52.52888 -61.55054,-58.76965 -5.58979,-4.51679 -6.08275,-4.71427 -9.071,-3.6337 -4.34042,1.56951 -11.05586,1.43299 -14.39279,-0.2926 -3.8332,-1.98223 -9.94713,-8.96045 -12.20271,-13.92773 -2.24091,-4.93499 -2.48331,-13.35898 -0.51965,-18.05869 2.17206,-5.19847 8.26392,-11.28563 13.16908,-13.15893 10.77777,-4.11607 26.18708,2.25414 31.37468,12.97029 1.1572,2.39045 2.37634,7.44319 2.7092,11.2283 0.5314,6.04279 1.10107,7.53412 4.67152,12.2295 2.23648,2.94112 8.81526,9.64415 14.61951,14.89562 5.80425,5.25148 14.88802,13.98261 20.18615,19.40252 C 457.4311,615.56553 462.2686,620 462.88297,620 463.67902,620 464,611.9719 464,592.06155 v -27.93846 l -8.75,-8.85085 c -5.92275,-5.99101 -10.50419,-11.83531 -14.179,-18.08742 -3.88859,-6.6158 -6.08756,-9.3711 -7.75,-9.71069 -1.27655,-0.26077 -3.4726,-0.71438 -4.88011,-1.00802 -3.88953,-0.81144 -11.11661,-8.05012 -13.02422,-13.04513 -3.40012,-8.90308 0.48556,-18.65618 8.96724,-22.50786 5.38185,-2.444 9.00408,-2.3878 14.39808,0.22339 4.72103,2.28541 7.61503,6.07061 9.27279,12.12831 1.5369,5.61604 0.20674,10.2308 -4.67703,16.22614 -2.40776,2.95578 -4.37775,5.60844 -4.37775,5.8948 0,0.28636 2.00774,1.40877 4.46165,2.49425 2.45391,1.08548 7.61109,4.93154 11.46042,8.5468 3.84932,3.61525 7.47168,6.57319 8.04969,6.57319 0.72149,0 0.969,-12.61722 0.78958,-40.25 L 463.5,462.5 h -28.39937 -28.39937 l -1.36946,3.95559 c -2.6009,7.51252 -10.7414,13.35421 -20.95317,15.03617 -5.96024,0.9817 -6.44721,1.30825 -18.5,12.40571 -6.80825,6.26861 -12.95529,12.21489 -13.66009,13.21396 -1.01981,1.44559 -1.0423,3.11449 -0.11015,8.17343 1.55038,8.41422 -0.40917,14.60889 -6.90755,21.83665 -5.44901,6.06062 -10.925,8.85592 -17.20084,8.78045 -6.27559,-0.0755 -10.37497,-1.79007 -14.99111,-6.27017 -8.40721,-8.15945 -11.47708,-21.60111 -7.12276,-31.1876 C 309.29659,500.93568 320.07842,494 328.34025,494 c 1.64118,0 5.37193,0.75274 8.29055,1.67275 l 5.30658,1.67275 8.78131,-8.4465 c 4.82972,-4.64558 10.45303,-9.7147 12.49624,-11.2647 l 3.71494,-2.81818 -3.96494,-7.88586 C 359.64996,460.33711 359,458.05192 359,452.99008 c 0,-7.65892 1.62836,-11.52825 6.82485,-16.21735 5.5914,-5.04544 10.52625,-7.01719 17.67515,-7.06221 10.07428,-0.0634 16.03191,3.33982 24.74021,14.1327 1.5456,1.91557 2.73028,2.15678 10.593,2.15678 C 436.227,446 452,444.77493 452,443.42398 c 0,-0.69776 -9.43381,-10.38688 -20.96402,-21.53136 -11.53021,-11.14449 -21.19561,-20.86621 -21.47866,-21.60384 -0.47507,-1.23801 7.65465,-13.42891 9.3849,-14.07309 0.92958,-0.34609 35.7269,32.97301 53.30778,51.04322 L 485,450.36378 v 196.81811 c 0,156.79933 -0.25416,196.81372 -1.25,196.79654 -0.6875,-0.0119 -3.50051,-2.14937 -6.25113,-4.75 z M 261.5,490.70494 c -5.64227,-2.71043 -12.23352,-9.38327 -15.66165,-15.85553 -3.45558,-6.52409 -3.29656,-18.45953 0.33774,-25.34941 3.43613,-6.51419 6.97256,-9.76279 14.32391,-13.15809 8.5447,-3.94647 18.89509,-3.97733 26.40943,-0.0787 2.90133,1.50526 5.79611,2.71792 6.43286,2.6948 0.63674,-0.0231 13.28522,-11.89945 28.10772,-26.39186 14.82251,-14.4924 27.47406,-26.14873 28.11455,-25.90295 0.6405,0.24578 1.70594,1.65962 2.36765,3.14186 0.66171,1.48225 2.34857,4.36764 3.74858,6.41198 l 2.54547,3.717 -28.11471,27.783 -28.1147,27.78301 0.002,5.66102 c 0.003,11.077 -6.81645,22.71784 -16.70303,28.51175 -6.62656,3.88343 -16.92962,4.33035 -23.79539,1.03217 z m 484.49353,1.36072 c -11.75088,-3.57445 -19.74918,-14.94862 -20.89759,-29.71789 l -0.63696,-8.19161 -4.97949,-4.32808 c -9.06232,-7.87679 -47.29076,-44.89109 -48.89968,-47.34662 -0.8689,-1.3261 -1.57981,-2.86993 -1.57981,-3.43073 0,-1.2914 8.26735,-13.8865 9.17682,-13.98066 0.37224,-0.0385 5.09724,4.686 10.5,10.49897 5.40275,5.81297 17.80006,18.19008 27.54959,27.5047 l 17.72641,16.93567 6.08145,-3.18782 c 5.38838,-2.82451 6.98313,-3.182 13.99331,-3.13686 14.37012,0.0925 24.05391,7.18853 28.13183,20.61417 4.54363,14.95892 -2.10267,29.57586 -16.49513,36.27705 -5.31767,2.47593 -14.21376,3.14965 -19.67075,1.48971 z m 3.14593,-92.15498 C 741.33431,397.52967 735.67727,392.47741 731.3242,384 l -2.8242,-5.5 -23.62243,-0.2678 -23.62242,-0.2678 -0.70416,-8.07228 c -0.38728,-4.43976 -0.43159,-8.34485 -0.0985,-8.67799 0.33313,-0.33313 11.16709,-0.4788 24.07546,-0.3237 l 23.46977,0.28199 2.25112,-2.75967 c 10.68325,-13.09669 22.32445,-17.18523 35.25112,-12.38064 19.55396,7.26783 24.80465,31.88663 9.83473,46.11187 -7.45599,7.08509 -18.09212,10.23862 -26.19527,7.7667 z m -489.82696,-2.494 c -13.56264,-6.5631 -20.73423,-25.22855 -14.41023,-37.50543 5.40147,-10.48597 12.59588,-15.03694 24.83287,-15.70853 7.42296,-0.40739 8.77793,-0.1864 13.73885,2.24075 3.48067,1.70294 6.86741,4.41367 9.2137,7.37462 6.01749,7.5939 4.29402,7.18191 30.04388,7.18191 h 23.34931 l -0.29044,8.25 -0.29044,8.25 -21.5,0.012 c -11.825,0.007 -22.49144,0.11908 -23.70321,0.25 -1.53688,0.16605 -2.78815,1.56041 -4.13732,4.61044 -6.61085,14.94492 -23.12162,21.68611 -36.84697,15.04428 z M 376.5,394.76386 c -8.96301,-3.22145 -15.24281,-10.35486 -17.53788,-19.92178 -5.5653,-23.19874 19.68774,-40.03036 39.76741,-26.50573 12.53525,8.4431 13.79355,27.1932 2.5776,38.40915 -7.71015,7.71016 -17.16329,10.76567 -24.80713,8.01836 z m 260.63946,0.13233 c -7.04241,-2.11796 -15.9756,-9.63452 -18.07813,-15.21129 -1.77805,-4.71613 -1.26658,-16.63593 0.92061,-21.45472 5.62397,-12.39066 20.92681,-17.79941 33.51806,-11.84689 13.4895,6.37717 18.09835,19.50724 11.63957,33.15971 -5.40049,11.41547 -18.04304,18.34771 -28.00011,15.35319 z M 503.28604,303.61342 c -14.16503,-4.64261 -21.33479,-14.04225 -21.55989,-28.26525 -0.13105,-8.27993 4.21611,-17.27027 11.61447,-24.01987 7.08674,-6.4653 13.33253,-8.64722 23.42285,-8.18263 6.96587,0.32073 8.22098,0.70477 12.59983,3.85527 18.08855,13.01439 20.5144,34.1498 5.63345,49.08186 -2.85266,2.86246 -6.43087,5.22863 -9.53193,6.30322 -6.84471,2.37184 -16.97627,2.93253 -22.17878,1.2274 z m 1.26398,-73.34365 C 504.24751,229.48143 504,220.54459 504,210.41012 v -18.42631 l -4.02284,-1.60963 C 491.89504,187.14036 485,175.28456 485,164.62142 c 0,-16.70959 11.45966,-28.65885 27.72498,-28.90949 15.45769,-0.23819 27.00609,10.83101 28.05518,26.89102 0.40439,6.19074 0.10984,7.89206 -2.29352,13.24747 -2.45012,5.4596 -9.91737,14.11935 -12.2143,14.16489 -3.41689,0.0677 -3.77109,1.8586 -4.27234,21.60119 l -0.5,19.69326 -8.19998,0.19667 c -6.33072,0.15184 -8.32535,-0.13007 -8.75,-1.23666 z"
       id="path1" />
  </g>
</svg>
